<svg width="512" height="512" viewBox="0 0 512 512" fill="none" xmlns="http://www.w3.org/2000/svg">
  <rect width="512" height="512" rx="112" fill="#0A2342"/>
  <circle cx="256" cy="256" r="190" fill="#132F55"/>
  <path d="M86 250 C146 182 222 156 322 184 C278 190 232 203 188 230 C244 215 307 214 388 236 C292 246 212 274 145 320 H76 C94 299 113 277 154 253 C128 250 105 250 86 250Z" fill="white"/>
  <path d="M91 336 C178 272 270 238 392 240 C286 270 203 306 139 360 H65 C73 351 81 343 91 336Z" fill="#F58220"/>
  <text x="256" y="432" text-anchor="middle" font-family="Arial, sans-serif" font-size="76" font-weight="900" fill="white" letter-spacing="-4">VQ</text>
</svg>
